<svg width="37" height="32" fill="none" xmlns="http://www.w3.org/2000/svg"><path d="M27.44 13.476c-1.151.272-1.897 1.232-1.945 2.51l-.013.356 1.47 1.31h.287l.94-.002c.791-.005 1.61-.008 2.432.01h.06c.812 0 1.518-.356 2.097-1.054.777-.935.751-2.064-.065-3.022a8.185 8.185 0 00-.512-.539l-.201-.201-.23-.237-.327.007c-.124.003-.245.003-.366.003-.605 0-1.29 0-1.983.297-.64.27-1.147.444-1.643.562zm3.627.648h.066c.15.149.292.292.418.44.42.495.262.822.053 1.077-.302.363-.582.52-.96.507-.484-.01-.965-.013-1.44-.013l-1.033.002c-.219 0-.433.003-.645.003l-.476-.426c.075-.312.267-.655.738-.766.587-.139 1.17-.338 1.893-.648.406-.174.86-.174 1.386-.176zm-22.423-.698c-.347-.076-.7-.207-1.073-.345-.897-.333-1.916-.709-3.11-.389l-.197.053-.143.144c-.734.733-1.46 1.618-1.298 2.623.169 1.054 1.235 1.73 2.361 2.302l.192.098 3.946-.333.18-.143c.216-.172.395-.353.551-.558v-.002a2.07 2.07 0 00-.267-2.793c-.302-.267-.673-.554-1.142-.657zm.207 2.533c-.04.053-.083.1-.133.15l-3.04.258c-1.124-.595-1.338-.938-1.363-1.091-.02-.134.05-.457.723-1.162.66-.111 1.288.12 2.006.385.406.152.827.305 1.275.404.147.032.376.236.462.312a.55.55 0 01.07.744zm20.482-6.51c.164-.834-.148-1.369-.509-1.825-.726-.915-1.303-1.847-1.719-2.772-.778-1.742-2.02-2.591-3.793-2.591h-.02c-2.755.01-5.557.01-8.269.008l-3.546-.003-.216.194a3.338 3.338 0 00-.21.217l-.045.053c-.95.244-1.353.98-1.648 1.522-.05.093-.101.184-.154.275l-.018.03c-.65 1.101-1.325 2.24-2.049 3.307-.337.496-.44.98-.335 1.572l.111.625h22.302l.118-.612zM8.498 8.547c.706-1.054 1.359-2.155 1.989-3.219l.017-.03c.063-.106.121-.212.18-.32.287-.524.425-.731.748-.794.305-.063.514-.247.663-.406h2.928c2.712.003 5.515.003 8.277-.005h.015c1.16 0 1.88.507 2.412 1.696a14.655 14.655 0 001.9 3.078H8.498zm27.09 13.843c-.002.736-.007 1.495.003 2.24.002.328-.03.62-.103.888-.227.842-1.016 1.431-1.918 1.431h-3.26c-.882 0-1.62-.63-1.754-1.502-.063-.413-.048-.804-.033-1.182l.003-.098a.117.117 0 00-.033-.086.126.126 0 00-.088-.04 43.736 43.736 0 01-1.14-.055 15.824 15.824 0 00-.758-.033h-3.274a.755.755 0 110-1.512h3.274c.22 0 .497.015.847.035.317.018.688.04 1.101.053.439.015.845.199 1.144.522.298.32.454.736.436 1.174l-.005.1c-.012.32-.025.626.015.893.02.123.131.22.26.22h3.259c.217 0 .41-.132.458-.313.036-.134.053-.29.05-.48-.007-.755-.004-1.521-.002-2.262.005-.99.01-2.017-.015-3.017a103.237 103.237 0 00-.257-5.149c-.017-.237-.1-.504-.189-.786-.07-.224-.144-.456-.194-.708-.098-.474-.328-.913-.595-1.422a11.72 11.72 0 01-.529-1.099l-.315-.776 2.205-.643c.2-.199.328-.352.376-.59l-.464-.65h-3.617l-.221-.357a72.018 72.018 0 01-.751-1.253c-.55-.93-1.069-1.807-1.676-2.621-.9-1.202-2.09-1.81-3.546-1.797-2.611.015-5.268.013-7.838.01a1577.74 1577.74 0 00-4.885 0c-.967.003-1.814.36-2.59 1.096-.764.726-1.306 1.639-1.878 2.606-.406.686-.824 1.394-1.343 2.067l-.227.295H1.976l-.39.605c.15.544.544.703 1.446.95.108.03.217.06.325.093l.887.26-.43.816-.175.335a18.16 18.16 0 01-.325.61c-.55.953-.816 2.027-.985 2.856-.104.499-.101 1.096.002 1.88.126.96-.11 2.505-.176 2.896l.1 4.652-.007.053c0 .005-.06.52-.038 1.069.015.41.356.735.771.735.333 0 .767.008 1.223.016.673.01 1.368.022 1.877.015l.01-.804c0-1.207.98-2.185 2.186-2.185h4.5a.755.755 0 110 1.512H8.28a.674.674 0 00-.673.673l.003.789a1.53 1.53 0 01-1.5 1.53 65.06 65.06 0 01-1.925-.016c-.449-.007-.875-.015-1.2-.015a2.274 2.274 0 01-2.283-2.187 9.197 9.197 0 01.042-1.253L.64 18.779l.013-.073c.08-.467.27-1.825.179-2.513-.126-.958-.121-1.716.015-2.384.194-.94.499-2.165 1.154-3.304l.043-.076C1.187 10.14.227 9.603.035 8.136L0 7.86l1.154-1.784h3.614c.37-.52.701-1.076 1.021-1.618.6-1.013 1.22-2.062 2.137-2.934 1.056-1 2.276-1.51 3.63-1.512 1.63-.003 3.258-.003 4.889 0 2.568.002 5.222.005 7.83-.013 1.933-.02 3.581.82 4.768 2.405.658.88 1.223 1.834 1.767 2.757.172.287.34.577.517.867h3.55l1.218 1.703v.242c0 1.059-.575 1.621-.917 1.956l-.2.197-.917.267.106.204c.292.56.597 1.137.736 1.817.038.177.096.366.156.562.106.335.224.718.255 1.127.136 1.855.222 3.563.26 5.222.025 1.025.02 2.061.015 3.064zm-12.825 2.611H20.94V18.62a1.15 1.15 0 00-1.15-1.15h-3.46a1.15 1.15 0 00-1.149 1.15v6.381H13.36a1.15 1.15 0 00-.814 1.963l4.7 4.7c.224.225.52.336.814.336.295 0 .59-.11.814-.335l4.7-4.7c.33-.33.429-.822.25-1.253a1.144 1.144 0 00-1.061-.71zm-4.7 5.34l-3.829-3.828h1.31a1.15 1.15 0 001.15-1.149V18.98h2.735v6.382a1.15 1.15 0 001.149 1.149h1.31l-3.825 3.83z" fill="#4DA82F"/></svg>