<svg width="36" height="30" fill="none" xmlns="http://www.w3.org/2000/svg"><path d="M12.38 29.03l-.053-.005c-1.39-.14-2.256-1.014-3.017-1.782l-.025-.027a1548.12 1548.12 0 00-5.719-5.728l-2.325-2.325c-1.65-1.65-1.655-3.783-.011-5.427l.149-.15.57-.568c1.56-1.538 3.727-1.538 5.272 0l1.628 1.623a921.112 921.112 0 003.602 3.584.258.258 0 00.18.074.248.248 0 00.178-.076A3609.88 3609.88 0 0128.68 2.239c1.69-1.69 3.79-1.692 5.478-.004l.238.238c.2.197.397.392.59.594a3.58 3.58 0 01.064 4.925c-.092.101-.19.2-.287.296l-.069.069-4.491 4.487c-4.767 4.762-9.534 9.525-14.299 14.291l-.144.147c-.706.71-1.504 1.516-2.756 1.727l-.108.011-.516.01zM4.587 13.466c-.523 0-1.046.232-1.514.693l-.564.562-.149.149c-1.013 1.015-1.01 2.137.012 3.157l2.325 2.323a1915.5 1915.5 0 015.723 5.732l.025.027c.644.65 1.201 1.211 1.992 1.31l.344-.012c.716-.137 1.234-.66 1.835-1.263l.149-.15c4.764-4.766 9.531-9.528 14.298-14.29l4.565-4.561c.078-.078.156-.154.23-.236a1.986 1.986 0 00-.035-2.736c-.183-.19-.371-.376-.56-.564l-.245-.243c-1.064-1.064-2.143-1.062-3.21.002a3476.3 3476.3 0 00-15.86 15.973 1.846 1.846 0 01-1.309.557h-.016a1.84 1.84 0 01-1.302-.534 774.5 774.5 0 01-3.61-3.593c-.61-.61-1.18-1.179-1.625-1.621-.46-.452-.979-.681-1.5-.681z" fill="#4DA82F"/></svg>