<svg width="14" height="16" fill="none" xmlns="http://www.w3.org/2000/svg"><path d="M12.692 3.942C12.19 2.435 11.235 1.318 9.851.62 9.248.316 8.58.126 7.81.042 7.032-.043 6.326 0 5.65.174A6.131 6.131 0 002.56 2.05C1.471 3.268.947 4.655.961 6.308c.005.048.006.104.01.163.007.152.017.34.043.527.071.533.22 1.089.455 1.7.373.975.906 1.94 1.675 3.036.786 1.122 1.662 2.158 2.338 2.938.315.364.614.687.912.99.22.223.497.338.78.338.199 0 .4-.057.589-.174.166-.1.329-.243.486-.424a30.464 30.464 0 002.733-3.602c.668-1.043 1.162-2.003 1.513-2.938.295-.788.466-1.51.525-2.21a6.72 6.72 0 00-.328-2.71zm-.763 2.48a6.807 6.807 0 01-.332 1.677c-.267.823-.657 1.648-1.227 2.595-.658 1.09-1.469 2.206-2.551 3.51-.16.192-.325.377-.496.564a.78.78 0 01-.134.112l-.015.011a1.952 1.952 0 01-.205-.197c-.965-1.092-1.98-2.273-2.868-3.516-.723-1.01-1.258-1.982-1.64-2.97a5.788 5.788 0 01-.387-1.647 4.875 4.875 0 01.801-3.121 5.111 5.111 0 012.722-2.107 4.92 4.92 0 011.54-.233c.77.017 1.435.15 2.032.404.812.348 1.479.923 1.98 1.71.381.597.62 1.282.73 2.092.055.405.07.769.05 1.115zm-4.918-3.61a3.258 3.258 0 00-2.307.976 3.216 3.216 0 00-.94 2.333c.01.84.38 1.67 1.014 2.284.614.59 1.402.909 2.206.887l.09.002c.796 0 1.585-.328 2.18-.909.64-.625.99-1.46.983-2.354a3.258 3.258 0 00-3.226-3.219zm.037 5.355h-.002a2.22 2.22 0 01-1.554-.652 2.037 2.037 0 01-.613-1.45c.006-1.387 1.095-2.137 2.116-2.14h.006c.566 0 1.099.219 1.5.62.399.397.618.926.618 1.485a2.107 2.107 0 01-.623 1.528c-.393.39-.917.611-1.448.61z" fill="#4DA82F"/></svg>