<svg width="17" height="16" fill="none" xmlns="http://www.w3.org/2000/svg"><path d="M7.994 0a7.959 7.959 0 00-7.95 8.004c.013 4.445 3.605 8.02 8.031 7.996 4.399-.024 7.988-3.639 7.964-8.02A7.989 7.989 0 007.993 0zm-.056 14.98c-3.847-.077-6.94-3.246-6.882-7.054.058-3.88 3.228-6.974 7.075-6.909 3.864.066 6.963 3.26 6.887 7.102-.075 3.821-3.288 6.936-7.08 6.86zm3.833-4.806c-.196.335-.503.279-.802.104-1.011-.585-2.037-1.15-3.028-1.767-.2-.125-.371-.438-.394-.68a6.864 6.864 0 01-.027-.443c-.013-.444.008-.892.008-1.339 0-.33-.01-.662-.005-.993.002-.11.005-.22.01-.331.022-.425-.186-1.075.516-1.056.675.02.485.663.496 1.091.021.786.037 1.574-.004 2.36-.024.452.139.684.529.89.813.427 1.593.92 2.393 1.373.333.187.517.438.309.792z" fill="#4DA82F"/></svg>