<svg width="16" height="16" fill="none" xmlns="http://www.w3.org/2000/svg"><path d="M12.514 9.798c-.587-.548-1.355-.538-1.982-.031-.165.132-.31.287-.46.436-.856.847-.865.86-1.848.14-1.33-.975-2.45-2.14-3.257-3.672.392-.371.793-.717 1.154-1.1.636-.678.644-1.518.006-2.192a44.654 44.654 0 00-1.99-1.983c-.68-.633-1.514-.612-2.198.02-.344.317-.65.676-1 .988-.838.75-1.054 1.694-.887 2.755.064.4.156.802.294 1.182 1.25 3.454 3.532 6.071 6.618 8.015 1.194.752 2.459 1.36 3.874 1.583.85.134 1.68.08 2.355-.519a16.25 16.25 0 001.46-1.484c.53-.61.521-1.434-.026-2.021a44.333 44.333 0 00-2.113-2.117zm1.34 3.685a28.56 28.56 0 01-1.177 1.192c-.531.506-1.191.47-1.839.347-1.5-.282-2.815-.994-4.045-1.855C4.26 11.39 2.34 9.11 1.257 6.187 1.066 5.672.982 5.115.85 4.578c.036-.58.228-1.047.64-1.435.353-.331.68-.687 1.031-1.019.393-.369.678-.379 1.063-.007.64.618 1.27 1.249 1.887 1.89.313.325.3.618-.019.954-.343.36-.69.72-1.063 1.048-.387.34-.405.702-.189 1.131.755 1.501 1.88 2.691 3.191 3.709.474.367 1.015.65 1.53.96.343.206.661.157.945-.128.373-.374.744-.75 1.127-1.115.376-.359.652-.362 1.018-.005.617.6 1.226 1.208 1.828 1.823.383.394.387.703.016 1.1zm2.106-6.64c.068.314.095.637-.315.717-.393.077-.499-.193-.578-.527-.78-3.296-2.827-5.332-6.142-6.087-.299-.067-.551-.19-.487-.522.034-.172.238-.314.329-.424 1.135.18 2.09.505 2.97 1.021 2.256 1.325 3.671 3.264 4.223 5.822zM8.302 3.337c.04-.184.255-.33.388-.487.502.161.902.253 1.272.415 1.646.72 2.673 1.964 3.095 3.706.077.318.085.64-.304.732-.386.09-.505-.183-.588-.515-.451-1.804-1.583-2.933-3.408-3.347-.285-.066-.52-.204-.455-.504z" fill="#fff"/></svg>