<svg width="40" height="40" viewBox="0 0 40 40" fill="none" xmlns="http://www.w3.org/2000/svg">
<circle cx="20" cy="20" r="20" fill="#4DA82F"/>
<path d="M24.5141 21.7983C23.927 21.2501 23.1585 21.26 22.5315 21.7667C22.3673 21.8988 22.2221 22.0544 22.0715 22.2027C21.2158 23.0496 21.2067 23.0622 20.2241 22.3421C18.8939 21.3677 17.7733 20.2024 16.9667 18.6706C17.3586 18.2997 17.7597 17.9541 18.1208 17.5705C18.7569 16.8928 18.7651 16.0532 18.1272 15.3792C17.4839 14.6988 16.8224 14.0348 16.1373 13.396C15.4577 12.7627 14.623 12.7835 13.9388 13.4159C13.5949 13.7335 13.2892 14.0918 12.9398 14.4039C12.1005 15.1539 11.8855 16.0985 12.0524 17.1588C12.1159 17.5587 12.2076 17.9613 12.3455 18.3413C13.5958 21.7947 15.8778 24.4121 18.9638 26.3564C20.1578 27.1082 21.4227 27.7162 22.8382 27.9388C23.6884 28.0727 24.5186 28.0193 25.1928 27.4204C25.7109 26.9599 26.1981 26.4586 26.6527 25.9357C27.1826 25.3259 27.1744 24.5017 26.6273 23.9145C25.9468 23.1862 25.2418 22.4787 24.5141 21.7983ZM25.8542 25.4833C25.4731 25.8905 25.0821 26.2904 24.6774 26.6749C24.1457 27.1806 23.486 27.1444 22.8382 27.0223C21.3383 26.74 20.0226 26.028 18.7932 25.1667C16.2589 23.3907 14.3399 21.1107 13.2574 18.1875C13.0659 17.6709 12.9825 17.1145 12.8491 16.5771C12.8854 15.9971 13.0768 15.5303 13.4897 15.1422C13.8417 14.811 14.1684 14.4546 14.5204 14.1234C14.9133 13.7543 15.1982 13.7443 15.583 14.1162C16.2235 14.7341 16.8523 15.3647 17.4703 16.0062C17.7833 16.331 17.7706 16.6241 17.4512 16.9598C17.1082 17.3208 16.7616 17.6809 16.3878 18.0084C16.0012 18.3477 15.9831 18.7105 16.199 19.1393C16.954 20.6403 18.0782 21.83 19.3902 22.8478C19.8639 23.2151 20.4046 23.4974 20.9209 23.8078C21.263 24.014 21.5815 23.9652 21.8655 23.6802C22.2384 23.3056 22.6086 22.9292 22.9915 22.5646C23.3681 22.2064 23.6439 22.2027 24.0105 22.5601C24.6266 23.1609 25.2363 23.7679 25.8379 24.3832C26.2208 24.7767 26.2253 25.0861 25.8542 25.4833ZM27.9602 18.8434C28.0282 19.1574 28.0555 19.4804 27.6453 19.56C27.2525 19.6369 27.1463 19.3673 27.0674 19.0334C26.287 15.7366 24.24 13.7009 20.9246 12.9464C20.626 12.8785 20.3738 12.7555 20.4382 12.4243C20.4718 12.2515 20.6759 12.1104 20.7667 12C21.9018 12.1809 22.8572 12.5048 23.7374 13.0215C25.993 14.346 27.4085 16.2848 27.9602 18.8434ZM20.3021 15.3367C20.342 15.153 20.5571 15.0074 20.6896 14.8499C21.1922 15.011 21.5924 15.1033 21.9617 15.2652C23.6076 15.9845 24.6347 17.2294 25.0567 18.971C25.1338 19.2886 25.1419 19.6116 24.7527 19.703C24.3671 19.7934 24.2482 19.5202 24.1647 19.1882C23.7138 17.3841 22.5823 16.255 20.7567 15.8406C20.4718 15.7755 20.2368 15.6371 20.3021 15.3367Z" fill="white"/>
</svg>
